<mxfile host="app.diagrams.net" agent="Mozilla/5.0 (Windows NT 10.0; Win64; x64) AppleWebKit/537.36 (KHTML, like Gecko) Chrome/137.0.0.0 Safari/537.36 Edg/137.0.0.0" version="27.1.6">
  <diagram name="Page-1" id="5PjLqskdP5DcuBnukaY5">
    <mxGraphModel dx="1037" dy="613" grid="1" gridSize="10" guides="1" tooltips="1" connect="1" arrows="1" fold="1" page="1" pageScale="1" pageWidth="1169" pageHeight="827" math="0" shadow="0">
      <root>
        <mxCell id="0" />
        <mxCell id="1" parent="0" />
        <mxCell id="qlJI4h_UiYn8qoaIwAoD-1" value="Incidents" style="swimlane;fontStyle=0;childLayout=stackLayout;horizontal=1;startSize=30;horizontalStack=0;resizeParent=1;resizeParentMax=0;resizeLast=0;collapsible=1;marginBottom=0;whiteSpace=wrap;html=1;fillColor=#FAE5C7;strokeColor=#0F8B8D;labelBackgroundColor=none;fontColor=#143642;" parent="1" vertex="1">
          <mxGeometry x="455" y="140" width="140" height="300" as="geometry" />
        </mxCell>
        <mxCell id="qlJI4h_UiYn8qoaIwAoD-2" value="total_casualties" style="text;strokeColor=none;fillColor=none;align=left;verticalAlign=middle;spacingLeft=4;spacingRight=4;overflow=hidden;points=[[0,0.5],[1,0.5]];portConstraint=eastwest;rotatable=0;whiteSpace=wrap;html=1;labelBackgroundColor=none;fontColor=#143642;" parent="qlJI4h_UiYn8qoaIwAoD-1" vertex="1">
          <mxGeometry y="30" width="140" height="30" as="geometry" />
        </mxCell>
        <mxCell id="qlJI4h_UiYn8qoaIwAoD-3" value="high_impact" style="text;strokeColor=none;fillColor=none;align=left;verticalAlign=middle;spacingLeft=4;spacingRight=4;overflow=hidden;points=[[0,0.5],[1,0.5]];portConstraint=eastwest;rotatable=0;whiteSpace=wrap;html=1;labelBackgroundColor=none;fontColor=#143642;" parent="qlJI4h_UiYn8qoaIwAoD-1" vertex="1">
          <mxGeometry y="60" width="140" height="30" as="geometry" />
        </mxCell>
        <mxCell id="qlJI4h_UiYn8qoaIwAoD-4" value="nwoundter" style="text;strokeColor=none;fillColor=none;align=left;verticalAlign=middle;spacingLeft=4;spacingRight=4;overflow=hidden;points=[[0,0.5],[1,0.5]];portConstraint=eastwest;rotatable=0;whiteSpace=wrap;html=1;labelBackgroundColor=none;fontColor=#143642;" parent="qlJI4h_UiYn8qoaIwAoD-1" vertex="1">
          <mxGeometry y="90" width="140" height="30" as="geometry" />
        </mxCell>
        <mxCell id="qlJI4h_UiYn8qoaIwAoD-5" value="nkillus" style="text;strokeColor=none;fillColor=none;align=left;verticalAlign=middle;spacingLeft=4;spacingRight=4;overflow=hidden;points=[[0,0.5],[1,0.5]];portConstraint=eastwest;rotatable=0;whiteSpace=wrap;html=1;labelBackgroundColor=none;fontColor=#143642;" parent="qlJI4h_UiYn8qoaIwAoD-1" vertex="1">
          <mxGeometry y="120" width="140" height="30" as="geometry" />
        </mxCell>
        <mxCell id="qlJI4h_UiYn8qoaIwAoD-6" value="nwoundus" style="text;strokeColor=none;fillColor=none;align=left;verticalAlign=middle;spacingLeft=4;spacingRight=4;overflow=hidden;points=[[0,0.5],[1,0.5]];portConstraint=eastwest;rotatable=0;whiteSpace=wrap;html=1;labelBackgroundColor=none;fontColor=#143642;" parent="qlJI4h_UiYn8qoaIwAoD-1" vertex="1">
          <mxGeometry y="150" width="140" height="30" as="geometry" />
        </mxCell>
        <mxCell id="qlJI4h_UiYn8qoaIwAoD-225" value="success" style="text;strokeColor=none;fillColor=none;align=left;verticalAlign=middle;spacingLeft=4;spacingRight=4;overflow=hidden;points=[[0,0.5],[1,0.5]];portConstraint=eastwest;rotatable=0;whiteSpace=wrap;html=1;labelBackgroundColor=none;fontColor=#143642;" parent="qlJI4h_UiYn8qoaIwAoD-1" vertex="1">
          <mxGeometry y="180" width="140" height="30" as="geometry" />
        </mxCell>
        <mxCell id="qlJI4h_UiYn8qoaIwAoD-226" value="nwound" style="text;strokeColor=none;fillColor=none;align=left;verticalAlign=middle;spacingLeft=4;spacingRight=4;overflow=hidden;points=[[0,0.5],[1,0.5]];portConstraint=eastwest;rotatable=0;whiteSpace=wrap;html=1;labelBackgroundColor=none;fontColor=#143642;" parent="qlJI4h_UiYn8qoaIwAoD-1" vertex="1">
          <mxGeometry y="210" width="140" height="30" as="geometry" />
        </mxCell>
        <mxCell id="qlJI4h_UiYn8qoaIwAoD-227" value="nkillter" style="text;strokeColor=none;fillColor=none;align=left;verticalAlign=middle;spacingLeft=4;spacingRight=4;overflow=hidden;points=[[0,0.5],[1,0.5]];portConstraint=eastwest;rotatable=0;whiteSpace=wrap;html=1;labelBackgroundColor=none;fontColor=#143642;" parent="qlJI4h_UiYn8qoaIwAoD-1" vertex="1">
          <mxGeometry y="240" width="140" height="30" as="geometry" />
        </mxCell>
        <mxCell id="qlJI4h_UiYn8qoaIwAoD-228" value="propvalue" style="text;strokeColor=none;fillColor=none;align=left;verticalAlign=middle;spacingLeft=4;spacingRight=4;overflow=hidden;points=[[0,0.5],[1,0.5]];portConstraint=eastwest;rotatable=0;whiteSpace=wrap;html=1;labelBackgroundColor=none;fontColor=#143642;" parent="qlJI4h_UiYn8qoaIwAoD-1" vertex="1">
          <mxGeometry y="270" width="140" height="30" as="geometry" />
        </mxCell>
        <mxCell id="qlJI4h_UiYn8qoaIwAoD-7" value="" style="endArrow=none;html=1;rounded=0;exitX=0.017;exitY=0.044;exitDx=0;exitDy=0;exitPerimeter=0;labelBackgroundColor=none;strokeColor=#A8201A;fontColor=default;" parent="1" edge="1">
          <mxGeometry width="50" height="50" relative="1" as="geometry">
            <mxPoint x="350.1700000000001" y="220.44000000000005" as="sourcePoint" />
            <mxPoint x="360" y="229" as="targetPoint" />
          </mxGeometry>
        </mxCell>
        <mxCell id="qlJI4h_UiYn8qoaIwAoD-9" value="" style="endArrow=none;html=1;rounded=0;labelBackgroundColor=none;strokeColor=#A8201A;fontColor=default;exitX=0;exitY=0.5;exitDx=0;exitDy=0;" parent="1" source="qlJI4h_UiYn8qoaIwAoD-4" edge="1">
          <mxGeometry width="50" height="50" relative="1" as="geometry">
            <mxPoint x="450" y="250" as="sourcePoint" />
            <mxPoint x="359.90290337845454" y="225.98058067569093" as="targetPoint" />
          </mxGeometry>
        </mxCell>
        <mxCell id="qlJI4h_UiYn8qoaIwAoD-10" value="" style="endArrow=none;html=1;rounded=0;exitX=0;exitY=0;exitDx=0;exitDy=0;labelBackgroundColor=none;strokeColor=#A8201A;fontColor=default;" parent="1" edge="1">
          <mxGeometry width="50" height="50" relative="1" as="geometry">
            <mxPoint x="351.46446609406735" y="221.46446609406723" as="sourcePoint" />
            <mxPoint x="310" y="200" as="targetPoint" />
          </mxGeometry>
        </mxCell>
        <mxCell id="qlJI4h_UiYn8qoaIwAoD-11" value="" style="ellipse;whiteSpace=wrap;html=1;aspect=fixed;labelBackgroundColor=none;fillColor=#FAE5C7;strokeColor=#0F8B8D;fontColor=#143642;" parent="1" vertex="1">
          <mxGeometry x="300" y="190" width="10" height="10" as="geometry" />
        </mxCell>
        <mxCell id="qlJI4h_UiYn8qoaIwAoD-12" value="" style="endArrow=none;html=1;rounded=0;exitX=0;exitY=0;exitDx=0;exitDy=0;labelBackgroundColor=none;strokeColor=#A8201A;fontColor=default;" parent="1" source="qlJI4h_UiYn8qoaIwAoD-11" edge="1">
          <mxGeometry width="50" height="50" relative="1" as="geometry">
            <mxPoint x="422" y="211" as="sourcePoint" />
            <mxPoint x="280" y="170" as="targetPoint" />
          </mxGeometry>
        </mxCell>
        <mxCell id="qlJI4h_UiYn8qoaIwAoD-13" value="" style="endArrow=none;html=1;rounded=0;exitX=0;exitY=0;exitDx=0;exitDy=0;labelBackgroundColor=none;strokeColor=#A8201A;fontColor=default;" parent="1" source="qlJI4h_UiYn8qoaIwAoD-15" edge="1">
          <mxGeometry width="50" height="50" relative="1" as="geometry">
            <mxPoint x="281" y="161" as="sourcePoint" />
            <mxPoint x="240" y="140" as="targetPoint" />
          </mxGeometry>
        </mxCell>
        <mxCell id="qlJI4h_UiYn8qoaIwAoD-14" value="" style="ellipse;whiteSpace=wrap;html=1;aspect=fixed;labelBackgroundColor=none;fillColor=#FAE5C7;strokeColor=#0F8B8D;fontColor=#143642;" parent="1" vertex="1">
          <mxGeometry x="230" y="130" width="10" height="10" as="geometry" />
        </mxCell>
        <mxCell id="qlJI4h_UiYn8qoaIwAoD-16" value="" style="endArrow=none;html=1;rounded=0;exitX=0;exitY=0;exitDx=0;exitDy=0;labelBackgroundColor=none;strokeColor=#A8201A;fontColor=default;" parent="1" target="qlJI4h_UiYn8qoaIwAoD-15" edge="1">
          <mxGeometry width="50" height="50" relative="1" as="geometry">
            <mxPoint x="281" y="161" as="sourcePoint" />
            <mxPoint x="240" y="140" as="targetPoint" />
          </mxGeometry>
        </mxCell>
        <mxCell id="qlJI4h_UiYn8qoaIwAoD-15" value="" style="ellipse;whiteSpace=wrap;html=1;aspect=fixed;labelBackgroundColor=none;fillColor=#FAE5C7;strokeColor=#0F8B8D;fontColor=#143642;" parent="1" vertex="1">
          <mxGeometry x="270" y="160" width="10" height="10" as="geometry" />
        </mxCell>
        <mxCell id="qlJI4h_UiYn8qoaIwAoD-17" value="Date" style="text;html=1;align=center;verticalAlign=middle;whiteSpace=wrap;rounded=0;labelBackgroundColor=none;fontColor=#143642;" parent="1" vertex="1">
          <mxGeometry x="310" y="180" width="60" height="10" as="geometry" />
        </mxCell>
        <mxCell id="qlJI4h_UiYn8qoaIwAoD-18" value="time" style="text;html=1;align=center;verticalAlign=middle;whiteSpace=wrap;rounded=0;labelBackgroundColor=none;fontColor=#143642;" parent="1" vertex="1">
          <mxGeometry x="350" y="210" width="60" as="geometry" />
        </mxCell>
        <mxCell id="qlJI4h_UiYn8qoaIwAoD-21" value="Months" style="text;html=1;align=center;verticalAlign=middle;whiteSpace=wrap;rounded=0;labelBackgroundColor=none;fontColor=#143642;" parent="1" vertex="1">
          <mxGeometry x="270" y="150" width="60" height="10" as="geometry" />
        </mxCell>
        <mxCell id="qlJI4h_UiYn8qoaIwAoD-22" value="Year" style="text;html=1;align=center;verticalAlign=middle;whiteSpace=wrap;rounded=0;labelBackgroundColor=none;fontColor=#143642;" parent="1" vertex="1">
          <mxGeometry x="220" y="120" width="60" height="10" as="geometry" />
        </mxCell>
        <mxCell id="qlJI4h_UiYn8qoaIwAoD-28" value="" style="endArrow=none;html=1;rounded=0;labelBackgroundColor=none;strokeColor=#A8201A;fontColor=default;exitX=0;exitY=0;exitDx=0;exitDy=0;" parent="1" source="qlJI4h_UiYn8qoaIwAoD-24" edge="1">
          <mxGeometry width="50" height="50" relative="1" as="geometry">
            <mxPoint x="200" y="160" as="sourcePoint" />
            <mxPoint x="260" y="221" as="targetPoint" />
          </mxGeometry>
        </mxCell>
        <mxCell id="qlJI4h_UiYn8qoaIwAoD-29" value="extended" style="text;whiteSpace=wrap;labelBackgroundColor=none;fontColor=#143642;" parent="1" vertex="1">
          <mxGeometry x="200" y="215" width="30" height="10" as="geometry" />
        </mxCell>
        <mxCell id="qlJI4h_UiYn8qoaIwAoD-31" value="" style="endArrow=none;html=1;rounded=0;labelBackgroundColor=none;strokeColor=#A8201A;fontColor=default;" parent="1" source="qlJI4h_UiYn8qoaIwAoD-50" edge="1">
          <mxGeometry width="50" height="50" relative="1" as="geometry">
            <mxPoint x="830" y="110" as="sourcePoint" />
            <mxPoint x="805" y="135" as="targetPoint" />
          </mxGeometry>
        </mxCell>
        <mxCell id="qlJI4h_UiYn8qoaIwAoD-32" value="" style="endArrow=none;html=1;rounded=0;labelBackgroundColor=none;strokeColor=#A8201A;fontColor=default;" parent="1" source="qlJI4h_UiYn8qoaIwAoD-48" edge="1">
          <mxGeometry width="50" height="50" relative="1" as="geometry">
            <mxPoint x="800" y="140" as="sourcePoint" />
            <mxPoint x="770" y="160" as="targetPoint" />
          </mxGeometry>
        </mxCell>
        <mxCell id="qlJI4h_UiYn8qoaIwAoD-33" value="" style="endArrow=none;html=1;rounded=0;entryX=1;entryY=0.5;entryDx=0;entryDy=0;labelBackgroundColor=none;strokeColor=#A8201A;fontColor=default;" parent="1" source="qlJI4h_UiYn8qoaIwAoD-44" target="qlJI4h_UiYn8qoaIwAoD-37" edge="1">
          <mxGeometry width="50" height="50" relative="1" as="geometry">
            <mxPoint x="760" y="170" as="sourcePoint" />
            <mxPoint x="751" y="232" as="targetPoint" />
            <Array as="points" />
          </mxGeometry>
        </mxCell>
        <mxCell id="qlJI4h_UiYn8qoaIwAoD-34" value="" style="endArrow=none;html=1;rounded=0;labelBackgroundColor=none;strokeColor=#A8201A;fontColor=default;" parent="1" source="qlJI4h_UiYn8qoaIwAoD-37" edge="1">
          <mxGeometry width="50" height="50" relative="1" as="geometry">
            <mxPoint x="700" y="200" as="sourcePoint" />
            <mxPoint x="665" y="214.5" as="targetPoint" />
          </mxGeometry>
        </mxCell>
        <mxCell id="qlJI4h_UiYn8qoaIwAoD-35" value="" style="endArrow=none;html=1;rounded=0;labelBackgroundColor=none;strokeColor=#A8201A;fontColor=default;" parent="1" edge="1">
          <mxGeometry width="50" height="50" relative="1" as="geometry">
            <mxPoint x="650" y="220" as="sourcePoint" />
            <mxPoint x="595" y="240" as="targetPoint" />
          </mxGeometry>
        </mxCell>
        <mxCell id="qlJI4h_UiYn8qoaIwAoD-36" value="" style="ellipse;whiteSpace=wrap;html=1;aspect=fixed;labelBackgroundColor=none;fillColor=#FAE5C7;strokeColor=#0F8B8D;fontColor=#143642;" parent="1" vertex="1">
          <mxGeometry x="650" y="210" width="15" height="15" as="geometry" />
        </mxCell>
        <mxCell id="qlJI4h_UiYn8qoaIwAoD-38" value="" style="endArrow=none;html=1;rounded=0;labelBackgroundColor=none;strokeColor=#A8201A;fontColor=default;" parent="1" target="qlJI4h_UiYn8qoaIwAoD-37" edge="1">
          <mxGeometry width="50" height="50" relative="1" as="geometry">
            <mxPoint x="700" y="200" as="sourcePoint" />
            <mxPoint x="665" y="214.5" as="targetPoint" />
          </mxGeometry>
        </mxCell>
        <mxCell id="qlJI4h_UiYn8qoaIwAoD-37" value="" style="ellipse;whiteSpace=wrap;html=1;aspect=fixed;labelBackgroundColor=none;fillColor=#FAE5C7;strokeColor=#0F8B8D;fontColor=#143642;" parent="1" vertex="1">
          <mxGeometry x="700" y="190" width="15" height="15" as="geometry" />
        </mxCell>
        <mxCell id="qlJI4h_UiYn8qoaIwAoD-45" value="" style="endArrow=none;html=1;rounded=0;entryX=1;entryY=0.5;entryDx=0;entryDy=0;labelBackgroundColor=none;strokeColor=#A8201A;fontColor=default;" parent="1" target="qlJI4h_UiYn8qoaIwAoD-44" edge="1">
          <mxGeometry width="50" height="50" relative="1" as="geometry">
            <mxPoint x="760" y="170" as="sourcePoint" />
            <mxPoint x="715" y="198" as="targetPoint" />
            <Array as="points">
              <mxPoint x="740" y="180" />
            </Array>
          </mxGeometry>
        </mxCell>
        <mxCell id="qlJI4h_UiYn8qoaIwAoD-44" value="" style="ellipse;whiteSpace=wrap;html=1;labelBackgroundColor=none;fillColor=#FAE5C7;strokeColor=#0F8B8D;fontColor=#143642;" parent="1" vertex="1">
          <mxGeometry x="760" y="160" width="10" height="10" as="geometry" />
        </mxCell>
        <mxCell id="qlJI4h_UiYn8qoaIwAoD-49" value="" style="endArrow=none;html=1;rounded=0;labelBackgroundColor=none;strokeColor=#A8201A;fontColor=default;" parent="1" target="qlJI4h_UiYn8qoaIwAoD-48" edge="1">
          <mxGeometry width="50" height="50" relative="1" as="geometry">
            <mxPoint x="800" y="140" as="sourcePoint" />
            <mxPoint x="770" y="160" as="targetPoint" />
          </mxGeometry>
        </mxCell>
        <mxCell id="qlJI4h_UiYn8qoaIwAoD-48" value="" style="ellipse;whiteSpace=wrap;html=1;labelBackgroundColor=none;fillColor=#FAE5C7;strokeColor=#0F8B8D;fontColor=#143642;" parent="1" vertex="1">
          <mxGeometry x="790" y="130" width="15" height="10" as="geometry" />
        </mxCell>
        <mxCell id="qlJI4h_UiYn8qoaIwAoD-51" value="" style="endArrow=none;html=1;rounded=0;labelBackgroundColor=none;strokeColor=#A8201A;fontColor=default;" parent="1" target="qlJI4h_UiYn8qoaIwAoD-50" edge="1">
          <mxGeometry width="50" height="50" relative="1" as="geometry">
            <mxPoint x="830" y="110" as="sourcePoint" />
            <mxPoint x="805" y="135" as="targetPoint" />
          </mxGeometry>
        </mxCell>
        <mxCell id="qlJI4h_UiYn8qoaIwAoD-50" value="" style="ellipse;whiteSpace=wrap;html=1;labelBackgroundColor=none;fillColor=#FAE5C7;strokeColor=#0F8B8D;fontColor=#143642;" parent="1" vertex="1">
          <mxGeometry x="820" y="100" width="20" height="10" as="geometry" />
        </mxCell>
        <mxCell id="qlJI4h_UiYn8qoaIwAoD-52" value="Location" style="text;whiteSpace=wrap;labelBackgroundColor=none;fontColor=#143642;" parent="1" vertex="1">
          <mxGeometry x="620" y="190" width="50" height="20" as="geometry" />
        </mxCell>
        <mxCell id="qlJI4h_UiYn8qoaIwAoD-53" value="region" style="text;whiteSpace=wrap;labelBackgroundColor=none;fontColor=#143642;" parent="1" vertex="1">
          <mxGeometry x="670" y="170" width="50" height="20" as="geometry" />
        </mxCell>
        <mxCell id="qlJI4h_UiYn8qoaIwAoD-54" value="country" style="text;whiteSpace=wrap;labelBackgroundColor=none;fontColor=#143642;" parent="1" vertex="1">
          <mxGeometry x="720" y="140" width="50" height="20" as="geometry" />
        </mxCell>
        <mxCell id="qlJI4h_UiYn8qoaIwAoD-55" value="provstate" style="text;whiteSpace=wrap;labelBackgroundColor=none;fontColor=#143642;" parent="1" vertex="1">
          <mxGeometry x="750" y="110" width="50" height="20" as="geometry" />
        </mxCell>
        <mxCell id="qlJI4h_UiYn8qoaIwAoD-56" value="city" style="text;whiteSpace=wrap;labelBackgroundColor=none;fontColor=#143642;" parent="1" vertex="1">
          <mxGeometry x="805" y="75" width="25" height="25" as="geometry" />
        </mxCell>
        <mxCell id="qlJI4h_UiYn8qoaIwAoD-57" value="" style="endArrow=none;html=1;rounded=0;labelBackgroundColor=none;strokeColor=#A8201A;fontColor=default;entryX=0.5;entryY=0;entryDx=0;entryDy=0;" parent="1" source="qlJI4h_UiYn8qoaIwAoD-58" target="qlJI4h_UiYn8qoaIwAoD-69" edge="1">
          <mxGeometry width="50" height="50" relative="1" as="geometry">
            <mxPoint x="900" y="70" as="sourcePoint" />
            <mxPoint x="830" y="30" as="targetPoint" />
          </mxGeometry>
        </mxCell>
        <mxCell id="qlJI4h_UiYn8qoaIwAoD-64" value="" style="endArrow=none;html=1;rounded=0;labelBackgroundColor=none;strokeColor=#A8201A;fontColor=default;exitX=1;exitY=0.5;exitDx=0;exitDy=0;" parent="1" source="qlJI4h_UiYn8qoaIwAoD-61" edge="1">
          <mxGeometry width="50" height="50" relative="1" as="geometry">
            <mxPoint x="940.6728685726534" y="57.5051813526743" as="sourcePoint" />
            <mxPoint x="970" y="75" as="targetPoint" />
          </mxGeometry>
        </mxCell>
        <mxCell id="qlJI4h_UiYn8qoaIwAoD-66" value="latitude" style="text;whiteSpace=wrap;labelBackgroundColor=none;fontColor=#143642;" parent="1" vertex="1">
          <mxGeometry x="952.5" y="40" width="50" height="20" as="geometry" />
        </mxCell>
        <mxCell id="qlJI4h_UiYn8qoaIwAoD-67" value="longitude" style="text;whiteSpace=wrap;labelBackgroundColor=none;fontColor=#143642;" parent="1" vertex="1">
          <mxGeometry x="870" y="35" width="60" height="20" as="geometry" />
        </mxCell>
        <mxCell id="qlJI4h_UiYn8qoaIwAoD-68" value="" style="endArrow=none;html=1;rounded=0;labelBackgroundColor=none;strokeColor=#A8201A;fontColor=default;entryX=1;entryY=1;entryDx=0;entryDy=0;exitX=0;exitY=0;exitDx=0;exitDy=0;" parent="1" source="qlJI4h_UiYn8qoaIwAoD-69" target="qlJI4h_UiYn8qoaIwAoD-56" edge="1">
          <mxGeometry width="50" height="50" relative="1" as="geometry">
            <mxPoint x="960" y="80" as="sourcePoint" />
            <mxPoint x="870" y="130" as="targetPoint" />
          </mxGeometry>
        </mxCell>
        <mxCell id="qlJI4h_UiYn8qoaIwAoD-69" value="" style="ellipse;whiteSpace=wrap;html=1;labelBackgroundColor=none;fillColor=#FAE5C7;strokeColor=#0F8B8D;fontColor=#143642;" parent="1" vertex="1">
          <mxGeometry x="890" y="115" width="20" height="15" as="geometry" />
        </mxCell>
        <mxCell id="qlJI4h_UiYn8qoaIwAoD-73" value="" style="endArrow=none;html=1;rounded=0;labelBackgroundColor=none;strokeColor=#A8201A;fontColor=default;" parent="1" source="qlJI4h_UiYn8qoaIwAoD-72" edge="1">
          <mxGeometry width="50" height="50" relative="1" as="geometry">
            <mxPoint x="670" y="230" as="sourcePoint" />
            <mxPoint x="770" y="220" as="targetPoint" />
          </mxGeometry>
        </mxCell>
        <mxCell id="qlJI4h_UiYn8qoaIwAoD-74" value="" style="endArrow=none;html=1;rounded=0;exitX=0;exitY=0;exitDx=0;exitDy=0;labelBackgroundColor=none;strokeColor=#A8201A;fontColor=default;" parent="1" edge="1">
          <mxGeometry width="50" height="50" relative="1" as="geometry">
            <mxPoint x="951.4644660940673" y="171.46446609406735" as="sourcePoint" />
            <mxPoint x="953" y="170" as="targetPoint" />
          </mxGeometry>
        </mxCell>
        <mxCell id="qlJI4h_UiYn8qoaIwAoD-78" value="vicinity" style="text;whiteSpace=wrap;labelBackgroundColor=none;fontColor=#143642;" parent="1" vertex="1">
          <mxGeometry x="880" y="140" width="40" height="20" as="geometry" />
        </mxCell>
        <mxCell id="qlJI4h_UiYn8qoaIwAoD-79" value="unknown_location_flag" style="text;whiteSpace=wrap;labelBackgroundColor=none;fontColor=#143642;" parent="1" vertex="1">
          <mxGeometry x="790" y="207.5" width="110" height="20" as="geometry" />
        </mxCell>
        <mxCell id="qlJI4h_UiYn8qoaIwAoD-80" value="" style="endArrow=none;html=1;rounded=0;labelBackgroundColor=none;strokeColor=#A8201A;fontColor=default;" parent="1" edge="1">
          <mxGeometry width="50" height="50" relative="1" as="geometry">
            <mxPoint x="800" y="330" as="sourcePoint" />
            <mxPoint x="660" y="280" as="targetPoint" />
            <Array as="points" />
          </mxGeometry>
        </mxCell>
        <mxCell id="qlJI4h_UiYn8qoaIwAoD-82" value="" style="endArrow=none;html=1;rounded=0;entryX=0.981;entryY=0.063;entryDx=0;entryDy=0;labelBackgroundColor=none;strokeColor=#A8201A;fontColor=default;entryPerimeter=0;" parent="1" source="qlJI4h_UiYn8qoaIwAoD-83" target="qlJI4h_UiYn8qoaIwAoD-6" edge="1">
          <mxGeometry width="50" height="50" relative="1" as="geometry">
            <mxPoint x="660" y="280" as="sourcePoint" />
            <mxPoint x="740" y="386" as="targetPoint" />
          </mxGeometry>
        </mxCell>
        <mxCell id="qlJI4h_UiYn8qoaIwAoD-84" value="" style="ellipse;whiteSpace=wrap;html=1;aspect=fixed;labelBackgroundColor=none;fillColor=#FAE5C7;strokeColor=#0F8B8D;fontColor=#143642;" parent="1" vertex="1">
          <mxGeometry x="730" y="267.5" width="15" height="15" as="geometry" />
        </mxCell>
        <mxCell id="qlJI4h_UiYn8qoaIwAoD-88" value="" style="endArrow=none;html=1;rounded=0;entryX=1;entryY=0.5;entryDx=0;entryDy=0;labelBackgroundColor=none;strokeColor=#A8201A;fontColor=default;" parent="1" target="qlJI4h_UiYn8qoaIwAoD-83" edge="1">
          <mxGeometry width="50" height="50" relative="1" as="geometry">
            <mxPoint x="660" y="280" as="sourcePoint" />
            <mxPoint x="590" y="285" as="targetPoint" />
          </mxGeometry>
        </mxCell>
        <mxCell id="qlJI4h_UiYn8qoaIwAoD-83" value="" style="ellipse;whiteSpace=wrap;html=1;aspect=fixed;labelBackgroundColor=none;fillColor=#FAE5C7;strokeColor=#0F8B8D;fontColor=#143642;" parent="1" vertex="1">
          <mxGeometry x="655" y="270" width="15" height="15" as="geometry" />
        </mxCell>
        <mxCell id="qlJI4h_UiYn8qoaIwAoD-91" value="" style="endArrow=none;html=1;rounded=0;entryX=1;entryY=1;entryDx=0;entryDy=0;exitX=0.5;exitY=0;exitDx=0;exitDy=0;labelBackgroundColor=none;strokeColor=#A8201A;fontColor=default;" parent="1" source="qlJI4h_UiYn8qoaIwAoD-84" target="qlJI4h_UiYn8qoaIwAoD-83" edge="1">
          <mxGeometry width="50" height="50" relative="1" as="geometry">
            <mxPoint x="720" y="270" as="sourcePoint" />
            <mxPoint x="680" y="273" as="targetPoint" />
            <Array as="points" />
          </mxGeometry>
        </mxCell>
        <mxCell id="qlJI4h_UiYn8qoaIwAoD-95" value="" style="endArrow=none;html=1;rounded=0;labelBackgroundColor=none;strokeColor=#A8201A;fontColor=default;" parent="1" source="qlJI4h_UiYn8qoaIwAoD-85" edge="1">
          <mxGeometry width="50" height="50" relative="1" as="geometry">
            <mxPoint x="890" y="275" as="sourcePoint" />
            <mxPoint x="800" y="330" as="targetPoint" />
          </mxGeometry>
        </mxCell>
        <mxCell id="qlJI4h_UiYn8qoaIwAoD-97" value="AttackType" style="text;whiteSpace=wrap;labelBackgroundColor=none;fontColor=#143642;" parent="1" vertex="1">
          <mxGeometry x="627.5" y="250" width="60" height="20" as="geometry" />
        </mxCell>
        <mxCell id="qlJI4h_UiYn8qoaIwAoD-98" value="attacktype1" style="text;whiteSpace=wrap;labelBackgroundColor=none;fontColor=#143642;" parent="1" vertex="1">
          <mxGeometry x="702.5" y="245" width="70" height="20" as="geometry" />
        </mxCell>
        <mxCell id="qlJI4h_UiYn8qoaIwAoD-100" value="weapon_type" style="text;whiteSpace=wrap;labelBackgroundColor=none;fontColor=#143642;" parent="1" vertex="1">
          <mxGeometry x="790" y="340" width="80" height="20" as="geometry" />
        </mxCell>
        <mxCell id="qlJI4h_UiYn8qoaIwAoD-108" value="weapon_subtype" style="text;whiteSpace=wrap;labelBackgroundColor=none;fontColor=#143642;" parent="1" vertex="1">
          <mxGeometry x="870" y="285" width="120" height="20" as="geometry" />
        </mxCell>
        <mxCell id="qlJI4h_UiYn8qoaIwAoD-109" value="" style="endArrow=none;html=1;rounded=0;exitX=0;exitY=0.5;exitDx=0;exitDy=0;labelBackgroundColor=none;strokeColor=#A8201A;fontColor=default;entryX=1;entryY=1;entryDx=0;entryDy=0;" parent="1" source="qlJI4h_UiYn8qoaIwAoD-225" target="BDMqCNL04mo_Xbu1bwPB-7" edge="1">
          <mxGeometry width="50" height="50" relative="1" as="geometry">
            <mxPoint x="452" y="451" as="sourcePoint" />
            <mxPoint x="409.15644030193994" y="314.01990062036384" as="targetPoint" />
          </mxGeometry>
        </mxCell>
        <mxCell id="qlJI4h_UiYn8qoaIwAoD-111" value="" style="endArrow=none;html=1;rounded=0;entryX=1;entryY=0.5;entryDx=0;entryDy=0;labelBackgroundColor=none;strokeColor=#A8201A;fontColor=default;exitX=0;exitY=1;exitDx=0;exitDy=0;" parent="1" source="BDMqCNL04mo_Xbu1bwPB-7" target="qlJI4h_UiYn8qoaIwAoD-112" edge="1">
          <mxGeometry width="50" height="50" relative="1" as="geometry">
            <mxPoint x="390.56539860348244" y="313.3148599501278" as="sourcePoint" />
            <mxPoint x="310" y="410" as="targetPoint" />
          </mxGeometry>
        </mxCell>
        <mxCell id="qlJI4h_UiYn8qoaIwAoD-112" value="" style="ellipse;whiteSpace=wrap;html=1;aspect=fixed;labelBackgroundColor=none;fillColor=#FAE5C7;strokeColor=#0F8B8D;fontColor=#143642;" parent="1" vertex="1">
          <mxGeometry x="335" y="320" width="15" height="15" as="geometry" />
        </mxCell>
        <mxCell id="qlJI4h_UiYn8qoaIwAoD-113" value="" style="endArrow=none;html=1;rounded=0;exitX=0;exitY=0;exitDx=0;exitDy=0;labelBackgroundColor=none;strokeColor=#A8201A;fontColor=default;" parent="1" source="qlJI4h_UiYn8qoaIwAoD-112" edge="1">
          <mxGeometry width="50" height="50" relative="1" as="geometry">
            <mxPoint x="422" y="421" as="sourcePoint" />
            <mxPoint x="280" y="340" as="targetPoint" />
          </mxGeometry>
        </mxCell>
        <mxCell id="qlJI4h_UiYn8qoaIwAoD-118" value="" style="endArrow=none;html=1;rounded=0;labelBackgroundColor=none;strokeColor=#A8201A;fontColor=default;" parent="1" target="qlJI4h_UiYn8qoaIwAoD-119" edge="1">
          <mxGeometry width="50" height="50" relative="1" as="geometry">
            <mxPoint x="280" y="340" as="sourcePoint" />
            <mxPoint x="340" y="479" as="targetPoint" />
          </mxGeometry>
        </mxCell>
        <mxCell id="qlJI4h_UiYn8qoaIwAoD-119" value="" style="ellipse;whiteSpace=wrap;html=1;aspect=fixed;labelBackgroundColor=none;fillColor=#FAE5C7;strokeColor=#0F8B8D;fontColor=#143642;" parent="1" vertex="1">
          <mxGeometry x="235" y="340" width="20" height="20" as="geometry" />
        </mxCell>
        <mxCell id="qlJI4h_UiYn8qoaIwAoD-120" value="" style="endArrow=none;html=1;rounded=0;labelBackgroundColor=none;strokeColor=#A8201A;fontColor=default;exitX=0.5;exitY=1;exitDx=0;exitDy=0;" parent="1" source="qlJI4h_UiYn8qoaIwAoD-121" edge="1">
          <mxGeometry width="50" height="50" relative="1" as="geometry">
            <mxPoint x="190" y="280" as="sourcePoint" />
            <mxPoint x="230" y="280" as="targetPoint" />
          </mxGeometry>
        </mxCell>
        <mxCell id="qlJI4h_UiYn8qoaIwAoD-124" value="Target" style="text;whiteSpace=wrap;labelBackgroundColor=none;fontColor=#143642;" parent="1" vertex="1">
          <mxGeometry x="390" y="285" width="50" height="20" as="geometry" />
        </mxCell>
        <mxCell id="qlJI4h_UiYn8qoaIwAoD-127" value="target_type" style="text;whiteSpace=wrap;labelBackgroundColor=none;fontColor=#143642;" parent="1" vertex="1">
          <mxGeometry x="300" y="295" width="70" height="20" as="geometry" />
        </mxCell>
        <mxCell id="qlJI4h_UiYn8qoaIwAoD-128" value="target_subtype" style="text;whiteSpace=wrap;labelBackgroundColor=none;fontColor=#143642;" parent="1" vertex="1">
          <mxGeometry x="220" y="310" width="90" height="20" as="geometry" />
        </mxCell>
        <mxCell id="qlJI4h_UiYn8qoaIwAoD-130" value="nationality" style="text;whiteSpace=wrap;labelBackgroundColor=none;fontColor=#143642;" parent="1" vertex="1">
          <mxGeometry x="150" y="252.5" width="60" height="20" as="geometry" />
        </mxCell>
        <mxCell id="qlJI4h_UiYn8qoaIwAoD-131" value="" style="endArrow=none;html=1;rounded=0;labelBackgroundColor=none;strokeColor=#A8201A;fontColor=default;entryX=0.5;entryY=1;entryDx=0;entryDy=0;" parent="1" source="qlJI4h_UiYn8qoaIwAoD-139" target="qlJI4h_UiYn8qoaIwAoD-132" edge="1">
          <mxGeometry width="50" height="50" relative="1" as="geometry">
            <mxPoint x="690" y="420" as="sourcePoint" />
            <mxPoint x="690" y="430" as="targetPoint" />
          </mxGeometry>
        </mxCell>
        <mxCell id="qlJI4h_UiYn8qoaIwAoD-135" value="" style="endArrow=none;html=1;rounded=0;entryX=0.869;entryY=1.111;entryDx=0;entryDy=0;entryPerimeter=0;labelBackgroundColor=none;strokeColor=#A8201A;fontColor=default;exitX=1;exitY=0.5;exitDx=0;exitDy=0;" parent="1" source="qlJI4h_UiYn8qoaIwAoD-228" target="qlJI4h_UiYn8qoaIwAoD-132" edge="1">
          <mxGeometry width="50" height="50" relative="1" as="geometry">
            <mxPoint x="600" y="390" as="sourcePoint" />
            <mxPoint x="572" y="363" as="targetPoint" />
          </mxGeometry>
        </mxCell>
        <mxCell id="qlJI4h_UiYn8qoaIwAoD-136" value="" style="endArrow=none;html=1;rounded=0;labelBackgroundColor=none;strokeColor=#A8201A;fontColor=default;entryX=0;entryY=0;entryDx=0;entryDy=0;" parent="1" source="qlJI4h_UiYn8qoaIwAoD-143" target="qlJI4h_UiYn8qoaIwAoD-132" edge="1">
          <mxGeometry width="50" height="50" relative="1" as="geometry">
            <mxPoint x="600" y="480" as="sourcePoint" />
            <mxPoint x="610" y="460" as="targetPoint" />
          </mxGeometry>
        </mxCell>
        <mxCell id="qlJI4h_UiYn8qoaIwAoD-139" value="" style="ellipse;whiteSpace=wrap;html=1;aspect=fixed;labelBackgroundColor=none;fillColor=#FAE5C7;strokeColor=#0F8B8D;fontColor=#143642;" parent="1" vertex="1">
          <mxGeometry x="754" y="474" width="16" height="16" as="geometry" />
        </mxCell>
        <mxCell id="qlJI4h_UiYn8qoaIwAoD-145" value="TerroristGroup" style="text;whiteSpace=wrap;labelBackgroundColor=none;fontColor=#143642;" parent="1" vertex="1">
          <mxGeometry x="627.5" y="420" width="82.5" height="20" as="geometry" />
        </mxCell>
        <mxCell id="qlJI4h_UiYn8qoaIwAoD-146" value="group_name" style="text;whiteSpace=wrap;labelBackgroundColor=none;fontColor=#143642;" parent="1" vertex="1">
          <mxGeometry x="740" y="446" width="80" height="4" as="geometry" />
        </mxCell>
        <mxCell id="qlJI4h_UiYn8qoaIwAoD-147" value="uncertainty" style="text;whiteSpace=wrap;labelBackgroundColor=none;fontColor=#143642;" parent="1" vertex="1">
          <mxGeometry x="690" y="530" width="70" height="20" as="geometry" />
        </mxCell>
        <mxCell id="qlJI4h_UiYn8qoaIwAoD-149" value="unknown_group_flag" style="text;whiteSpace=wrap;labelBackgroundColor=none;fontColor=#143642;" parent="1" vertex="1">
          <mxGeometry x="662.5" y="560" width="110" height="20" as="geometry" />
        </mxCell>
        <mxCell id="qlJI4h_UiYn8qoaIwAoD-151" value="" style="endArrow=none;html=1;rounded=0;entryX=0.008;entryY=-0.222;entryDx=0;entryDy=0;entryPerimeter=0;labelBackgroundColor=none;strokeColor=#A8201A;fontColor=default;" parent="1" target="qlJI4h_UiYn8qoaIwAoD-228" edge="1">
          <mxGeometry width="50" height="50" relative="1" as="geometry">
            <mxPoint x="370" y="420" as="sourcePoint" />
            <mxPoint x="370" y="450" as="targetPoint" />
          </mxGeometry>
        </mxCell>
        <mxCell id="qlJI4h_UiYn8qoaIwAoD-153" value="" style="endArrow=none;html=1;rounded=0;labelBackgroundColor=none;strokeColor=#A8201A;fontColor=default;entryX=0.948;entryY=1.682;entryDx=0;entryDy=0;entryPerimeter=0;exitX=0.5;exitY=0;exitDx=0;exitDy=0;" parent="1" source="qlJI4h_UiYn8qoaIwAoD-159" target="qlJI4h_UiYn8qoaIwAoD-161" edge="1">
          <mxGeometry width="50" height="50" relative="1" as="geometry">
            <mxPoint x="480" y="430" as="sourcePoint" />
            <mxPoint x="470" y="460" as="targetPoint" />
          </mxGeometry>
        </mxCell>
        <mxCell id="qlJI4h_UiYn8qoaIwAoD-154" value="" style="ellipse;whiteSpace=wrap;html=1;aspect=fixed;labelBackgroundColor=none;fillColor=#FAE5C7;strokeColor=#0F8B8D;fontColor=#143642;" parent="1" vertex="1">
          <mxGeometry x="264" y="436" width="16" height="16" as="geometry" />
        </mxCell>
        <mxCell id="qlJI4h_UiYn8qoaIwAoD-157" value="" style="endArrow=none;html=1;rounded=0;exitX=1;exitY=0;exitDx=0;exitDy=0;labelBackgroundColor=none;strokeColor=#A8201A;fontColor=default;" parent="1" source="qlJI4h_UiYn8qoaIwAoD-154" edge="1">
          <mxGeometry width="50" height="50" relative="1" as="geometry">
            <mxPoint x="410" y="436" as="sourcePoint" />
            <mxPoint x="370" y="420" as="targetPoint" />
          </mxGeometry>
        </mxCell>
        <mxCell id="qlJI4h_UiYn8qoaIwAoD-159" value="" style="ellipse;whiteSpace=wrap;html=1;aspect=fixed;labelBackgroundColor=none;fillColor=#FAE5C7;strokeColor=#0F8B8D;fontColor=#143642;" parent="1" vertex="1">
          <mxGeometry x="390" y="480" width="20" height="20" as="geometry" />
        </mxCell>
        <mxCell id="qlJI4h_UiYn8qoaIwAoD-161" value="PropertyDamage" style="text;whiteSpace=wrap;labelBackgroundColor=none;fontColor=#143642;" parent="1" vertex="1">
          <mxGeometry x="275" y="390" width="100" height="20" as="geometry" />
        </mxCell>
        <mxCell id="qlJI4h_UiYn8qoaIwAoD-162" value="extent" style="text;whiteSpace=wrap;labelBackgroundColor=none;fontColor=#143642;" parent="1" vertex="1">
          <mxGeometry x="235" y="414" width="40" height="20" as="geometry" />
        </mxCell>
        <mxCell id="qlJI4h_UiYn8qoaIwAoD-164" value="" style="endArrow=none;html=1;rounded=0;entryX=0.9;entryY=1.682;entryDx=0;entryDy=0;labelBackgroundColor=none;strokeColor=#A8201A;fontColor=default;entryPerimeter=0;" parent="1" source="qlJI4h_UiYn8qoaIwAoD-152" target="qlJI4h_UiYn8qoaIwAoD-161" edge="1">
          <mxGeometry width="50" height="50" relative="1" as="geometry">
            <mxPoint x="230" y="480" as="sourcePoint" />
            <mxPoint x="300" y="470" as="targetPoint" />
            <Array as="points" />
          </mxGeometry>
        </mxCell>
        <mxCell id="qlJI4h_UiYn8qoaIwAoD-166" value="property" style="text;whiteSpace=wrap;labelBackgroundColor=none;fontColor=#143642;" parent="1" vertex="1">
          <mxGeometry x="390" y="500" width="40" height="20" as="geometry" />
        </mxCell>
        <mxCell id="qlJI4h_UiYn8qoaIwAoD-167" value="propvalue_category" style="text;whiteSpace=wrap;labelBackgroundColor=none;fontColor=#143642;" parent="1" vertex="1">
          <mxGeometry x="240" y="540" width="110" height="20" as="geometry" />
        </mxCell>
        <mxCell id="qlJI4h_UiYn8qoaIwAoD-165" value="" style="ellipse;whiteSpace=wrap;html=1;aspect=fixed;labelBackgroundColor=none;fillColor=#FAE5C7;strokeColor=#0F8B8D;fontColor=#143642;" parent="1" vertex="1">
          <mxGeometry x="335" y="454" width="20" height="20" as="geometry" />
        </mxCell>
        <mxCell id="qlJI4h_UiYn8qoaIwAoD-183" value="" style="ellipse;whiteSpace=wrap;html=1;strokeColor=#0F8B8D;fontColor=#143642;fillColor=#FAE5C7;" parent="1" vertex="1">
          <mxGeometry x="310" y="515" width="20" height="20" as="geometry" />
        </mxCell>
        <mxCell id="qlJI4h_UiYn8qoaIwAoD-187" value="" style="endArrow=none;html=1;rounded=0;strokeColor=#A8201A;fontColor=#143642;fillColor=#FAE5C7;exitX=1;exitY=0;exitDx=0;exitDy=0;entryX=0;entryY=0.5;entryDx=0;entryDy=0;" parent="1" source="qlJI4h_UiYn8qoaIwAoD-183" target="qlJI4h_UiYn8qoaIwAoD-165" edge="1">
          <mxGeometry width="50" height="50" relative="1" as="geometry">
            <mxPoint x="520" y="410" as="sourcePoint" />
            <mxPoint x="570" y="360" as="targetPoint" />
          </mxGeometry>
        </mxCell>
        <mxCell id="qlJI4h_UiYn8qoaIwAoD-189" value="propvalue" style="text;html=1;align=center;verticalAlign=middle;resizable=0;points=[];autosize=1;strokeColor=none;fillColor=none;fontColor=#143642;" parent="1" vertex="1">
          <mxGeometry x="275" y="434" width="80" height="30" as="geometry" />
        </mxCell>
        <mxCell id="qlJI4h_UiYn8qoaIwAoD-201" value="" style="endArrow=none;html=1;rounded=0;labelBackgroundColor=none;strokeColor=#A8201A;fontColor=default;" parent="1" source="qlJI4h_UiYn8qoaIwAoD-93" target="qlJI4h_UiYn8qoaIwAoD-85" edge="1">
          <mxGeometry width="50" height="50" relative="1" as="geometry">
            <mxPoint x="900" y="320" as="sourcePoint" />
            <mxPoint x="800" y="330" as="targetPoint" />
          </mxGeometry>
        </mxCell>
        <mxCell id="qlJI4h_UiYn8qoaIwAoD-85" value="" style="ellipse;whiteSpace=wrap;html=1;labelBackgroundColor=none;fillColor=#FAE5C7;strokeColor=#0F8B8D;fontColor=#143642;" parent="1" vertex="1">
          <mxGeometry x="792.5" y="320" width="10" height="10" as="geometry" />
        </mxCell>
        <mxCell id="qlJI4h_UiYn8qoaIwAoD-205" value="" style="endArrow=none;html=1;rounded=0;labelBackgroundColor=none;strokeColor=#A8201A;fontColor=default;exitX=1;exitY=1;exitDx=0;exitDy=0;" parent="1" target="qlJI4h_UiYn8qoaIwAoD-72" edge="1" source="qlJI4h_UiYn8qoaIwAoD-36">
          <mxGeometry width="50" height="50" relative="1" as="geometry">
            <mxPoint x="660" y="220" as="sourcePoint" />
            <mxPoint x="770" y="220" as="targetPoint" />
            <Array as="points" />
          </mxGeometry>
        </mxCell>
        <mxCell id="qlJI4h_UiYn8qoaIwAoD-72" value="" style="ellipse;whiteSpace=wrap;html=1;labelBackgroundColor=none;fillColor=#FAE5C7;strokeColor=#0F8B8D;fontColor=#143642;" parent="1" vertex="1">
          <mxGeometry x="765" y="212.5" width="20" height="10" as="geometry" />
        </mxCell>
        <mxCell id="qlJI4h_UiYn8qoaIwAoD-210" value="" style="endArrow=none;html=1;rounded=0;labelBackgroundColor=none;strokeColor=#A8201A;fontColor=default;exitX=1;exitY=0.5;exitDx=0;exitDy=0;" parent="1" source="qlJI4h_UiYn8qoaIwAoD-69" target="qlJI4h_UiYn8qoaIwAoD-61" edge="1">
          <mxGeometry width="50" height="50" relative="1" as="geometry">
            <mxPoint x="910" y="125" as="sourcePoint" />
            <mxPoint x="970" y="75" as="targetPoint" />
          </mxGeometry>
        </mxCell>
        <mxCell id="qlJI4h_UiYn8qoaIwAoD-61" value="" style="ellipse;whiteSpace=wrap;html=1;labelBackgroundColor=none;fillColor=#FAE5C7;strokeColor=#0F8B8D;fontColor=#143642;direction=south;" parent="1" vertex="1">
          <mxGeometry x="965" y="65" width="10" height="20" as="geometry" />
        </mxCell>
        <mxCell id="qlJI4h_UiYn8qoaIwAoD-212" value="" style="endArrow=none;html=1;rounded=0;labelBackgroundColor=none;strokeColor=#A8201A;fontColor=default;entryX=0.5;entryY=0;entryDx=0;entryDy=0;" parent="1" edge="1">
          <mxGeometry width="50" height="50" relative="1" as="geometry">
            <mxPoint x="1055" y="85" as="sourcePoint" />
            <mxPoint x="1055" y="80" as="targetPoint" />
          </mxGeometry>
        </mxCell>
        <mxCell id="qlJI4h_UiYn8qoaIwAoD-58" value="" style="ellipse;whiteSpace=wrap;html=1;labelBackgroundColor=none;fillColor=#FAE5C7;strokeColor=#0F8B8D;fontColor=#143642;" parent="1" vertex="1">
          <mxGeometry x="890" y="65" width="20" height="10" as="geometry" />
        </mxCell>
        <mxCell id="qlJI4h_UiYn8qoaIwAoD-215" value="" style="endArrow=none;html=1;rounded=0;labelBackgroundColor=none;strokeColor=#A8201A;fontColor=default;exitX=0;exitY=0;exitDx=0;exitDy=0;" parent="1" source="BDMqCNL04mo_Xbu1bwPB-10" target="qlJI4h_UiYn8qoaIwAoD-24" edge="1">
          <mxGeometry width="50" height="50" relative="1" as="geometry">
            <mxPoint x="351.46446609406735" y="221.46446609406723" as="sourcePoint" />
            <mxPoint x="260" y="221" as="targetPoint" />
          </mxGeometry>
        </mxCell>
        <mxCell id="qlJI4h_UiYn8qoaIwAoD-24" value="" style="ellipse;whiteSpace=wrap;html=1;aspect=fixed;labelBackgroundColor=none;fillColor=#FAE5C7;strokeColor=#0F8B8D;fontColor=#143642;" parent="1" vertex="1">
          <mxGeometry x="250" y="215" width="10" height="10" as="geometry" />
        </mxCell>
        <mxCell id="qlJI4h_UiYn8qoaIwAoD-217" value="" style="endArrow=none;html=1;rounded=0;labelBackgroundColor=none;strokeColor=#A8201A;fontColor=default;exitX=0;exitY=0.5;exitDx=0;exitDy=0;" parent="1" source="BDMqCNL04mo_Xbu1bwPB-7" target="qlJI4h_UiYn8qoaIwAoD-121" edge="1">
          <mxGeometry width="50" height="50" relative="1" as="geometry">
            <mxPoint x="395" y="300" as="sourcePoint" />
            <mxPoint x="230" y="280" as="targetPoint" />
          </mxGeometry>
        </mxCell>
        <mxCell id="qlJI4h_UiYn8qoaIwAoD-121" value="" style="ellipse;whiteSpace=wrap;html=1;aspect=fixed;labelBackgroundColor=none;fillColor=#FAE5C7;strokeColor=#0F8B8D;fontColor=#143642;" parent="1" vertex="1">
          <mxGeometry x="210" y="265" width="15" height="15" as="geometry" />
        </mxCell>
        <mxCell id="qlJI4h_UiYn8qoaIwAoD-221" value="" style="endArrow=none;html=1;rounded=0;labelBackgroundColor=none;strokeColor=#A8201A;fontColor=default;" parent="1" target="qlJI4h_UiYn8qoaIwAoD-93" edge="1">
          <mxGeometry width="50" height="50" relative="1" as="geometry">
            <mxPoint x="900" y="320" as="sourcePoint" />
            <mxPoint x="802" y="325" as="targetPoint" />
          </mxGeometry>
        </mxCell>
        <mxCell id="qlJI4h_UiYn8qoaIwAoD-93" value="" style="ellipse;whiteSpace=wrap;html=1;aspect=fixed;labelBackgroundColor=none;fillColor=#FAE5C7;strokeColor=#0F8B8D;fontColor=#143642;" parent="1" vertex="1">
          <mxGeometry x="895" y="312.5" width="15" height="15" as="geometry" />
        </mxCell>
        <mxCell id="qlJI4h_UiYn8qoaIwAoD-143" value="" style="ellipse;whiteSpace=wrap;html=1;aspect=fixed;labelBackgroundColor=none;fillColor=#FAE5C7;strokeColor=#0F8B8D;fontColor=#143642;" parent="1" vertex="1">
          <mxGeometry x="652.5" y="540" width="20" height="20" as="geometry" />
        </mxCell>
        <mxCell id="qlJI4h_UiYn8qoaIwAoD-233" value="" style="endArrow=none;html=1;rounded=0;entryX=0;entryY=1;entryDx=0;entryDy=0;labelBackgroundColor=none;strokeColor=#A8201A;fontColor=default;" parent="1" source="qlJI4h_UiYn8qoaIwAoD-165" target="qlJI4h_UiYn8qoaIwAoD-152" edge="1">
          <mxGeometry width="50" height="50" relative="1" as="geometry">
            <mxPoint x="349" y="455" as="sourcePoint" />
            <mxPoint x="365" y="424" as="targetPoint" />
            <Array as="points" />
          </mxGeometry>
        </mxCell>
        <mxCell id="qlJI4h_UiYn8qoaIwAoD-152" value="" style="ellipse;whiteSpace=wrap;html=1;aspect=fixed;labelBackgroundColor=none;fillColor=#FAE5C7;strokeColor=#0F8B8D;fontColor=#143642;" parent="1" vertex="1">
          <mxGeometry x="365" y="417" width="15" height="15" as="geometry" />
        </mxCell>
        <mxCell id="qlJI4h_UiYn8qoaIwAoD-132" value="" style="ellipse;whiteSpace=wrap;html=1;aspect=fixed;labelBackgroundColor=none;fillColor=#FAE5C7;strokeColor=#0F8B8D;fontColor=#143642;" parent="1" vertex="1">
          <mxGeometry x="645" y="450" width="10" height="10" as="geometry" />
        </mxCell>
        <mxCell id="qlJI4h_UiYn8qoaIwAoD-242" value="" style="endArrow=none;html=1;rounded=0;labelBackgroundColor=none;strokeColor=#A8201A;fontColor=default;exitX=1;exitY=0.5;exitDx=0;exitDy=0;" parent="1" target="qlJI4h_UiYn8qoaIwAoD-138" edge="1" source="qlJI4h_UiYn8qoaIwAoD-132">
          <mxGeometry width="50" height="50" relative="1" as="geometry">
            <mxPoint x="650" y="480" as="sourcePoint" />
            <mxPoint x="629" y="423" as="targetPoint" />
          </mxGeometry>
        </mxCell>
        <mxCell id="qlJI4h_UiYn8qoaIwAoD-138" value="" style="ellipse;whiteSpace=wrap;html=1;aspect=fixed;labelBackgroundColor=none;fillColor=#FAE5C7;strokeColor=#0F8B8D;fontColor=#143642;" parent="1" vertex="1">
          <mxGeometry x="715" y="515" width="15" height="15" as="geometry" />
        </mxCell>
        <mxCell id="BDMqCNL04mo_Xbu1bwPB-7" value="" style="ellipse;whiteSpace=wrap;html=1;aspect=fixed;labelBackgroundColor=none;fillColor=#FAE5C7;strokeColor=#0F8B8D;fontColor=#143642;" vertex="1" parent="1">
          <mxGeometry x="400" y="310" width="15" height="15" as="geometry" />
        </mxCell>
        <mxCell id="BDMqCNL04mo_Xbu1bwPB-11" value="" style="endArrow=none;html=1;rounded=0;labelBackgroundColor=none;strokeColor=#A8201A;fontColor=default;exitX=0;exitY=0;exitDx=0;exitDy=0;" edge="1" parent="1" target="BDMqCNL04mo_Xbu1bwPB-10">
          <mxGeometry width="50" height="50" relative="1" as="geometry">
            <mxPoint x="351.46446609406735" y="221.46446609406723" as="sourcePoint" />
            <mxPoint x="260" y="220" as="targetPoint" />
          </mxGeometry>
        </mxCell>
        <mxCell id="BDMqCNL04mo_Xbu1bwPB-10" value="" style="ellipse;whiteSpace=wrap;html=1;aspect=fixed;labelBackgroundColor=none;fillColor=#FAE5C7;strokeColor=#0F8B8D;fontColor=#143642;" vertex="1" parent="1">
          <mxGeometry x="350" y="222.5" width="15" height="15" as="geometry" />
        </mxCell>
      </root>
    </mxGraphModel>
  </diagram>
</mxfile>
